<?xml version="1.0" encoding="UTF-8"?>
<svg id="Layer_2" data-name="Layer 2" xmlns="http://www.w3.org/2000/svg" viewBox="0 0 998.02 204.64">
  <defs>
    <style>
      .cls-1 {
        fill: #fff;
      }

      .cls-2 {
        fill: #4736fe;
      }
    </style>
  </defs>
  <g id="Layer_1-2" data-name="Layer 1">
    <g>
      <path class="cls-2" d="M182.48,0H22.16C9.92,0,0,9.92,0,22.16v160.32c0,12.24,9.92,22.16,22.16,22.16h160.31c12.24,0,22.16-9.92,22.16-22.16V22.16c0-12.24-9.92-22.16-22.16-22.16Z"/>
      <path class="cls-1" d="M172.6,119.95c1.13,0,1.94,1.08,1.64,2.17-8.52,30.79-36.42,53.54-69.75,54.28-.56.02-1.12.02-1.68.02s-1.12,0-1.68-.02c-.62-.01-1.23-.04-1.84-.07-.07,0-.13,0-.2.01-24.07-1.19-45.11-13.86-57.78-32.65-7.96-11.81-12.61-26.05-12.61-41.37,0-7.23,1.04-14.22,2.96-20.83.21-.72.88-1.22,1.63-1.22h26.26c1.2,0,2.01,1.2,1.58,2.33-2.36,6.05-3.66,12.72-3.66,19.72,0,22.39,13.33,41.34,31.71,47.71,1.79.62,3.62,1.12,5.49,1.5,2.63.53,5.34.8,8.11.8,4.74,0,9.31-.8,13.6-2.3,7.18-2.49,13.59-6.9,18.74-12.69,4.12-4.63,7.44-10.14,9.67-16.26.25-.68.88-1.13,1.6-1.13h26.18Z"/>
      <path class="cls-1" d="M174.22,91.99h-25.67c-.81,0-1.5-.57-1.66-1.36-1.94-8.97-6.08-17-11.75-23.36-3.6-4.05-7.81-7.42-12.48-9.92-2.01-1.09-4.1-2.01-6.28-2.76-4.28-1.49-8.84-2.28-13.57-2.28h-50.67c-1.53,0-2.28-1.85-1.19-2.93,12.54-12.28,29.43-20.16,48.15-21.08.07,0,.14,0,.2.01.61-.04,1.22-.07,1.84-.07.56-.02,1.12-.02,1.68-.02s1.12,0,1.68.02c35.97.8,65.63,27.23,71.4,61.74.17,1.04-.62,2.01-1.68,2.01h0Z"/>
      <path class="cls-2" d="M586.04,76.6h25.02c.87,0,1.58.71,1.58,1.58v19.72c3.77-15.7,14.66-24.47,33.08-23.94.86.02,1.55.72,1.55,1.58v24.23c0,.87-.71,1.58-1.58,1.58h-2.51c-16.78,0-29.68,11.19-29.68,29.9v55.64c0,.87-.71,1.58-1.58,1.58h-25.88c-.87,0-1.58-.71-1.58-1.58v-108.69c0-.87.71-1.58,1.58-1.58Z"/>
      <path class="cls-2" d="M536.18,77.53v13.06c-9.28-10.82-22.2-17.54-36.5-17.54-28.23,0-51.12,26.18-51.12,58.47s22.89,58.47,51.12,58.47c14.3,0,27.23-6.72,36.5-17.54v13.77c0,.87.71,1.58,1.58,1.58h26.07c.87,0,1.58-.71,1.58-1.58v-108.68c0-.87-.71-1.58-1.58-1.58h-26.07c-.87,0-1.58.71-1.58,1.58ZM505.68,163.95c-16.92,0-30.63-14.52-30.63-32.43s13.71-32.42,30.63-32.42c16,0,29.12,12.97,30.5,29.52.08.96.12,1.93.12,2.9s-.04,1.95-.12,2.9c-1.39,16.55-14.51,29.52-30.5,29.52Z"/>
      <path class="cls-2" d="M744.7,189.7h116.87c.87,0,1.58-.71,1.58-1.58v-26.12c0-.87-.71-1.58-1.58-1.58h-56.98l41.37-48.98,1.02-1.2c8-9.69,12.94-22,13.31-35.46.02-.56.03-1.12.03-1.69,0-32.25-26.15-58.39-58.4-58.39-28.77,0-52.69,20.81-57.51,48.2-.14.79.35,1.55,1.12,1.77l25.53,7.34c.96.28,1.92-.4,2-1.39,1.3-15.54,14.88-27.58,31.01-26.41,14.24,1.04,25.73,12.6,26.7,26.84.53,7.77-2.02,14.94-6.54,20.42l-.45.53-32.52,38.51-25.27,29.91-21.89,25.91c-.12.14-.18.32-.18.51v2.06c0,.44.35.79.79.79Z"/>
      <path class="cls-2" d="M979.99,120.19V16.32c0-.87-.71-1.58-1.58-1.58h-26.87c-.52,0-1,.26-1.29.68l-72.85,104.77-13.98,20.1c-.18.26-.28.58-.28.9v3.28c0,.87.71,1.58,1.58,1.58h86v42.04c0,.87.71,1.58,1.58,1.58h26.12c.87,0,1.58-.71,1.58-1.58v-42.04h16.46c.87,0,1.58-.71,1.58-1.58v-22.72c0-.87-.71-1.58-1.58-1.58h-16.46ZM950.72,120.19h-37.39l37.39-53.78v53.78Z"/>
      <path class="cls-2" d="M433.94,123.17c1.03,0,1.79.97,1.53,1.96-9.97,37.4-44.08,64.95-84.61,64.95s-76.37-28.96-85.34-67.8c-1.47-6.36-2.25-12.98-2.25-19.78,0-7.55.96-14.89,2.76-21.88,9.71-37.78,44-65.69,84.82-65.69s74.29,27.26,84.45,64.36c.27.99-.5,1.98-1.53,1.98h-31.79c-.65,0-1.23-.41-1.47-1.01-8.12-20.86-27.3-35.5-49.66-35.5-29.72,0-53.8,25.86-53.8,57.76s24.09,57.77,53.8,57.77c22.57,0,41.89-14.92,49.87-36.07.23-.61.82-1.03,1.47-1.03h31.74,0Z"/>
      <path class="cls-2" d="M699.76,189.9c-9.2,0-16.77-1.24-22.71-3.71-5.94-2.47-10.65-5.59-14.11-9.34-3.47-3.75-6.05-7.47-7.75-11.14-1.47-3.19-2.68-6.86-3.62-11.01-.23-.99.52-1.94,1.54-1.94h23.66c.68,0,1.27.44,1.5,1.08.93,2.63,2.04,4.86,3.36,6.67,1.49,2.05,3.79,3.86,6.9,5.41,3.11,1.56,7.22,2.34,12.31,2.34,6.09,0,10.47-1.31,13.16-3.93,2.69-2.62,4.04-5.55,4.04-8.81s-1.17-5.63-3.5-7.54c-2.34-1.91-5.77-3.36-10.3-4.35l-15.49-3.18c-6.23-1.28-12.03-3.15-17.41-5.63-5.38-2.47-9.76-5.87-13.16-10.19-3.39-4.31-5.09-9.87-5.09-16.66,0-10.05,3.82-18.36,11.46-24.94,7.64-6.58,18.04-9.87,31.2-9.87,8.35,0,15.24,1.13,20.69,3.39,5.44,2.26,9.84,5.09,13.16,8.49,3.32,3.39,5.8,6.79,7.43,10.19,1.39,2.91,2.55,6.29,3.48,10.14.24.99-.51,1.96-1.53,1.96h-22.79c-.66,0-1.26-.4-1.47-1.02-.8-2.23-1.78-4.08-2.95-5.56-1.35-1.7-3.33-3.22-5.94-4.56-2.62-1.34-6.12-2.01-10.51-2.01-5.94,0-10.16,1.28-12.63,3.82-2.47,2.55-3.72,5.24-3.72,8.06,0,3.12,1.34,5.52,4.04,7.22,2.69,1.7,6.16,2.97,10.4,3.82l14.65,3.18c10.47,2.12,19.07,5.8,25.79,11.04,6.72,5.24,10.08,12.81,10.08,22.71,0,6.65-1.74,12.7-5.2,18.15-3.47,5.45-8.49,9.77-15.07,12.95-6.58,3.18-14.54,4.77-23.88,4.77h0Z"/>
    </g>
  </g>
</svg>